<?xml version="1.0" encoding="UTF-8"?>
<svg width="34px" height="26px" viewBox="0 0 34 26" version="1.1" xmlns="http://www.w3.org/2000/svg" xmlns:xlink="http://www.w3.org/1999/xlink">
    <!-- Generator: sketchtool 41.2 (35397) - http://www.bohemiancoding.com/sketch -->
    <title>FBA7BB39-CDA0-431F-8E6F-294BD8FD1650</title>
    <desc>Created with sketchtool.</desc>
    <defs>
        <polygon id="path-1" points="33.4679919 8.93908603e-15 0 0 0 25.875829 33.4679919 25.875829 33.4679919 2.97969534e-15"></polygon>
    </defs>
    <g id="Icons" stroke="none" stroke-width="1" fill="none" fill-rule="evenodd">
        <g transform="translate(-205.000000, -744.000000)" id="ico_psvr">
            <g transform="translate(205.000000, 744.000000)">
                <g>
                    <mask id="mask-2" fill="white">
                        <use xlink:href="#path-1"></use>
                    </mask>
                    <g id="Clip-2"></g>
                    <path d="M18.0254435,22.7210226 L18.0254435,20.682329 L23.0665081,18.9160065 L24.9403952,18.2471355 L26.1894435,17.9349258 L27.8404435,18.0240387 C28.3306694,18.0687 28.5539758,18.2471355 28.6432984,18.4704419 C28.7324113,18.7377806 28.4202016,18.9610871 27.751121,19.1837645 L26.1003306,19.8088129 L18.0254435,22.7210226 Z M9.01329839,20.7007806 L7.13983065,21.0578613 L5.35526613,20.8345548 C4.99818548,20.6118774 4.9088629,20.388571 5.13216935,20.1654742 C5.35526613,20.0314903 5.66747581,19.8530548 6.02455645,19.7194903 L7.22873387,19.2730871 L12.4933145,17.4080065 L12.4933145,19.4045548 L10.1287823,20.2547968 L9.01329839,20.7007806 Z M33.4612661,18.9160065 C33.4170242,18.0687 32.4355242,17.3994097 30.6509597,16.8194419 C28.6432984,16.1503613 26.6356371,15.9272645 24.7621694,16.0167968 C22.6203145,16.0610387 20.3897661,16.5072323 18.0701048,17.3994097 L18.0254435,17.4155548 L18.0254435,5.66607097 C18.0254435,5.13097419 18.0701048,4.77389355 18.2929919,4.55100645 C18.5160887,4.23837742 18.7389758,4.19413548 19.0516048,4.32790968 C19.8100081,4.55100645 20.1666694,5.2200871 20.1666694,6.33536129 L20.1666694,14.4551194 C21.8623306,15.2579742 23.3789274,15.3472968 24.4942016,14.499571 C25.6541371,13.6965065 26.2785565,12.2688129 26.2785565,10.1275871 C26.2785565,7.89682903 25.8325726,6.20179677 24.8510726,5.0863129 C23.9588952,3.88150645 22.3974274,2.90021613 20.0773468,2.09715161 C17.0437339,1.11565161 14.5007661,0.401909677 12.4933145,-4.19354838e-05 L12.4933145,14.2613774 L10.1287823,15.0350871 L3.65981452,17.3547484 L2.54433065,17.8011516 C0.849298387,18.5146839 -0.0430887097,19.2730871 0.00157258065,19.9425871 C0.0904758065,20.9242968 1.20595968,21.6376194 3.21362097,22.1733452 C6.24220161,22.9925548 9.32802419,23.0697161 12.4933145,22.3867968 L12.4933145,24.1807968 L18.0254435,25.875829 L22.5314113,24.2697 L30.0709919,21.5929581 L30.9631694,21.1916355 C32.7479435,20.5225548 33.5507984,19.8088129 33.4612661,18.9160065 L33.4612661,18.9160065 Z" id="Fill-1" fill="#666666" mask="url(#mask-2)"></path>
                </g>
            </g>
        </g>
    </g>
</svg>