<?xml version="1.0" encoding="UTF-8"?>
<svg width="412px" height="15px" viewBox="0 0 412 15" version="1.1" xmlns="http://www.w3.org/2000/svg" xmlns:xlink="http://www.w3.org/1999/xlink">
    <!-- Generator: sketchtool 41.2 (35397) - http://www.bohemiancoding.com/sketch -->
    <title>1B1FE1EE-0A0A-47DC-B023-37D5B6B5BDBF</title>
    <desc>Created with sketchtool.</desc>
    <defs></defs>
    <g id="Dials" stroke="none" stroke-width="1" fill="none" fill-rule="evenodd">
        <g id="dials" transform="translate(-379.000000, -1335.000000)">
            <g id="large" transform="translate(290.000000, 120.000000)">
                <g id="dial_03" transform="translate(1.000000, 938.000000)">
                    <g id="logo" transform="translate(88.000000, 277.000000)">
                        <path d="M14.1790144,6.90002787 C14.1790144,4.83183127 13.8960778,3.49252067 13.3328864,2.89045805 C12.7442172,2.28142711 11.4864231,1.97064016 9.57425411,1.97064016 L1.84646329,1.97064016 L1.84646329,13.0544458 L9.93630573,13.0544458 C11.3643983,13.0544458 12.3459604,12.9206541 12.8809923,12.6488897 C13.4401609,12.4468085 13.7968488,11.9924742 13.951056,11.2830995 C14.0395575,11.0099415 14.1025813,10.6071727 14.1320818,10.067825 C14.1656051,9.53544551 14.1790144,8.88739199 14.1790144,8.13063272 L14.1790144,6.90002787 Z M15.7371773,11.5032983 C15.5641971,12.395243 15.2785786,13.0711697 14.8856856,13.5310787 C14.4753604,14.0049243 13.8464633,14.3686704 12.9949715,14.6195299 C12.1421388,14.8731766 11.0707342,15 9.77941669,15 L0.207844452,15 C0.0683875293,15 0,14.9275295 0,14.7853758 L0,0.242497445 C0,0.0864071356 0.0683875293,-8.8817842e-16 0.207844452,-8.8817842e-16 L9.37043245,-8.8817842e-16 C11.329534,-8.8817842e-16 12.7965136,0.277339032 13.7646664,0.830623432 C14.7676835,1.38251417 15.4207174,2.28142711 15.704995,3.5106383 C15.7814281,3.96636625 15.8511566,4.57818452 15.9128394,5.33494379 C15.9718404,6.09170306 16,7.02545759 16,8.13063272 C16,9.48527362 15.9128394,10.6155347 15.7371773,11.5032983 L15.7371773,11.5032983 Z" id="Fill-1" fill="#FFFFFF"></path>
                        <path d="M38.1080951,15 C38.0376331,15 38,14.9261427 38,14.7853958 L38,0.242474916 C38,0.0877926421 38.0376331,8.8817842e-16 38.1080951,8.8817842e-16 L38.7742814,8.8817842e-16 C38.8391384,8.8817842e-16 38.8695652,0.0877926421 38.8695652,0.242474916 L38.8695652,14.7853958 C38.8695652,14.9261427 38.8391384,15 38.7742814,15 L38.1080951,15 Z" id="Fill-3" fill="#FFFFFF"></path>
                        <path d="M77.9722515,7.88594311 C77.9907505,7.90251312 78,7.9342723 78,7.97983982 C78,8.90223695 77.981501,9.69069318 77.944503,10.3300193 C77.9121298,10.9679647 77.8550913,11.4512566 77.7918864,11.7826567 C77.5806897,12.8624689 77.0442191,13.6757802 76.1932657,14.2212096 C75.7508316,14.4904722 75.1943205,14.6851698 74.5144828,14.8122066 C73.8284787,14.9378625 73.0191481,15 72.0772414,15 L66.1791481,15 C65.0291278,15 64.0363489,14.93372 63.2069777,14.7983982 C62.3729817,14.6658382 61.6885193,14.4504281 61.1474239,14.1535487 C60.6618256,13.8566694 60.24714,13.4852251 59.9172414,13.0392157 C59.5827181,12.5918255 59.3514807,12.0533002 59.2111968,11.405689 C59.140284,11.014913 59.0909533,10.4460094 59.0524138,9.69345485 C59.0154158,8.94366197 59,7.98812483 59,6.83098592 C59,4.15631041 59.5333874,2.34603701 60.5986207,1.4084507 L60.5724138,1.4084507 C61.6345639,0.469483568 63.6463286,0 66.5984584,0 L72.0772414,0 C74.0365923,0 75.5057201,0.35349351 76.4907911,1.05771886 C77.4789452,1.76056338 77.9722515,2.82656725 77.9722515,4.24744546 L77.9722515,4.29577465 C77.9722515,4.43661972 77.9028803,4.50980392 77.7641379,4.50980392 L76.114645,4.50980392 C75.9543205,4.50980392 75.8741582,4.43661972 75.8741582,4.29577465 C75.8587424,3.84009942 75.767789,3.44656172 75.5997566,3.12344656 C75.4348073,2.79342723 75.1526978,2.53521127 74.7503448,2.34603701 C74.4543611,2.22176194 74.0828398,2.12234189 73.6357809,2.04225352 C73.1871805,1.96354598 72.6707505,1.92902513 72.0772414,1.92902513 L66.4427586,1.92902513 C65.4823529,1.92902513 64.6761055,1.97735432 64.0317241,2.09058271 C63.3873428,2.19828777 62.8755375,2.34051367 62.5148073,2.51311792 C61.8488438,2.87213477 61.4218256,3.53631593 61.2291278,4.50980392 C61.1227586,5.02209334 61.0688032,6.25103563 61.0688032,8.1938691 C61.0688032,10.2430268 61.3339554,11.5644849 61.8580933,12.1582436 C62.4654767,12.7837614 63.8498174,13.0985915 65.9941582,13.0985915 L72.0772414,13.0985915 C73.6342394,13.0985915 74.6486004,12.8624689 75.1172414,12.395747 C75.3238134,12.1734328 75.4918458,11.8420326 75.6136308,11.397404 C75.738499,10.9472521 75.7986207,10.3755869 75.7986207,9.6713615 L68.2741582,9.6713615 C68.1030426,9.6713615 68.0182556,9.59265396 68.0182556,9.43938139 L68.0182556,7.97983982 C68.0182556,7.82656725 68.1030426,7.74509804 68.2741582,7.74509804 L77.7918864,7.74509804 C77.8042191,7.74509804 77.8242596,7.75338304 77.8396755,7.76995305 L77.9722515,7.88594311 Z" id="Fill-5" fill="#FFFFFF"></path>
                        <path d="M96.1094949,15 C96.0367647,15 96,14.9261427 96,14.7853958 L96,0.242474916 C96,0.0877926421 96.0367647,8.8817842e-16 96.1094949,8.8817842e-16 L96.776055,8.8817842e-16 C96.8383951,8.8817842e-16 96.8695652,0.0877926421 96.8695652,0.242474916 L96.8695652,14.7853958 C96.8695652,14.9261427 96.8383951,15 96.776055,15 L96.1094949,15 Z" id="Fill-8" fill="#FFFFFF"></path>
                        <path d="M127.060494,1.97045708 L127.060494,14.7840022 C127.060494,14.9261427 126.975276,15 126.814308,15 L125.125723,15 C124.980537,15 124.912678,14.9261427 124.912678,14.7840022 L124.912678,1.97045708 L117.265124,1.97045708 C117.086796,1.97045708 117,1.88823857 117,1.73076923 L117,0.242474916 C117,0.0863991081 117.086796,0 117.265124,0 L134.726986,0 C134.908469,0 135,0.0863991081 135,0.242474916 L135,1.73076923 C135,1.88823857 134.908469,1.97045708 134.726986,1.97045708 L127.060494,1.97045708 Z" id="Fill-10" fill="#FFFFFF"></path>
                        <path d="M183.202128,15 C183.066489,15 183,14.9261427 183,14.7853958 L183,0.242474916 C183,0.0877926421 183.066489,8.8817842e-16 183.202128,8.8817842e-16 L184.62234,8.8817842e-16 C184.759309,8.8817842e-16 184.827128,0.0877926421 184.827128,0.242474916 L184.827128,13.0546265 L194.799202,13.0546265 C194.93484,13.0546265 195,13.1270903 195,13.2664437 L195,14.7853958 C195,14.9261427 194.93484,15 194.799202,15 L183.202128,15 Z" id="Fill-13" fill="#FFFFFF"></path>
                        <path d="M232.174839,6.90002787 C232.174839,4.83183127 231.89456,3.49252067 231.334004,2.89045805 C230.742603,2.28142711 229.484704,1.97064016 227.569692,1.97064016 L219.843936,1.97064016 L219.843936,13.0544458 L227.937139,13.0544458 C229.366692,13.0544458 230.344313,12.9206541 230.875367,12.6488897 C231.438605,12.4468085 231.800687,11.9924742 231.949543,11.2830995 C232.038052,11.0099415 232.101081,10.6071727 232.130584,10.067825 C232.161428,9.53544551 232.174839,8.88739199 232.174839,8.13063272 L232.174839,6.90002787 Z M233.738496,11.5032983 C233.56282,12.395243 233.277177,13.0711697 232.881569,13.5310787 C232.473892,14.0049243 231.844942,14.3686704 230.990697,14.6195299 C230.139133,14.8731766 229.06898,15 227.774872,15 L218.203839,15 C218.065711,15 218,14.9275295 218,14.7853758 L218,0.242497445 C218,0.0864071356 218.065711,8.8817842e-16 218.203839,8.8817842e-16 L227.368536,8.8817842e-16 C229.327802,8.8817842e-16 230.794904,0.277339032 231.768502,0.830623432 C232.768921,1.38251417 233.419328,2.28142711 233.70497,3.5106383 C233.780069,3.96636625 233.848462,4.57818452 233.911491,5.33494379 C233.969156,6.09170306 234,7.02545759 234,8.13063272 C234,9.48527362 233.914173,10.6155347 233.738496,11.5032983 L233.738496,11.5032983 Z" id="Fill-15" fill="#666666"></path>
                        <path d="M272.791321,6.86043285 C272.791321,6.06409545 272.753941,5.37042175 272.680806,4.78773585 C272.607671,4.20227525 272.471152,3.75 272.264749,3.41981132 C272.007964,2.77746948 271.429384,2.37097669 270.524135,2.19478357 C269.804161,2.03662597 268.417845,1.95893452 266.357062,1.95893452 L263.703072,1.95893452 C261.640663,1.95893452 260.242971,2.03662597 259.506745,2.19478357 C258.620998,2.37097669 258.02129,2.77746948 257.704372,3.41981132 C257.358199,4.11071032 257.182675,5.25943396 257.182675,6.86043285 L257.182675,8.16037736 C257.182675,9.7627636 257.358199,10.9087125 257.704372,11.6023862 C258.040793,12.2308546 258.647001,12.631798 259.529498,12.8052164 C260.246221,12.959212 261.640663,13.0438402 263.703072,13.0438402 L266.357062,13.0438402 C268.401593,13.0438402 269.781407,12.959212 270.499756,12.8052164 C271.401755,12.631798 271.988461,12.2308546 272.264749,11.6023862 C272.471152,11.2694229 272.607671,10.8199223 272.680806,10.2344617 C272.753941,9.6517758 272.791321,8.96642619 272.791321,8.16037736 L272.791321,6.86043285 Z M274.835852,10.72697 C274.723712,11.4664262 274.543312,12.0824084 274.286527,12.5693674 C274.006988,13.0438402 273.638063,13.450333 273.178124,13.7832963 C272.718186,14.1190344 272.175362,14.3715316 271.5464,14.5255272 L271.5464,14.5504994 C271.016577,14.6892342 270.324232,14.800222 269.480741,14.8806881 C268.625874,14.9597669 267.595482,15 266.383065,15 L263.703072,15 C260.904437,15 258.96067,14.7780244 257.87502,14.3396226 C256.659353,13.8831853 255.83699,13.0438402 255.412807,11.8160377 C255.266537,11.3554384 255.160897,10.7241953 255.097513,9.90843507 C255.03413,9.08712542 255,8.07436182 255,6.86043285 C255,5.86847947 255.050382,5.00971143 255.154396,4.26470588 C255.253535,3.53079911 255.430684,2.92036626 255.69397,2.45421754 C255.967008,1.97974473 256.332683,1.57325194 256.78287,1.23751387 C257.234682,0.89900111 257.790509,0.636792453 258.45685,0.44672586 L258.477978,0.44672586 C259.513246,0.15399556 261.252235,0 263.703072,0 L266.383065,0 C269.074435,0 271.000325,0.227524972 272.181863,0.682574917 C272.771819,0.904550499 273.277263,1.22641509 273.69007,1.65233074 C274.106127,2.07824639 274.410044,2.60405105 274.613197,3.22974473 C274.723712,3.6681465 274.81635,4.29938957 274.892735,5.12069922 C274.96587,5.93368479 275,6.94922309 275,8.16037736 C275,9.13706992 274.949618,9.98751387 274.835852,10.72697 L274.835852,10.72697 Z" id="Fill-17" fill="#666666"></path>
                        <path d="M315.107073,15 C314.947636,15 314.872606,14.9261427 314.872606,14.7853958 L314.872606,1.59280936 L314.364596,1.59280936 L305.700274,14.9512263 C305.670574,14.9832776 305.606487,15 305.51739,15 L304.379445,15 C304.34193,15 304.302853,14.9916388 304.265338,14.9749164 L295.683861,1.59280936 L295.208675,1.59280936 L295.208675,14.7853958 C295.208675,14.9261427 295.132083,15 294.972646,15 L293.245408,15 C293.082845,15 293,14.9261427 293,14.7853958 L293,0.242474916 C293,0.0877926421 293.082845,8.8817842e-16 293.245408,8.8817842e-16 L297.07034,8.8817842e-16 C297.121923,8.8817842e-16 297.167253,0.011148272 297.201641,0.02787068 L304.982806,12.2784281 L313.009379,0.0473801561 C313.046893,0.019509476 313.104728,8.8817842e-16 313.198515,8.8817842e-16 L316.810864,8.8817842e-16 C316.932786,8.8817842e-16 317,0.0877926421 317,0.242474916 L317,14.7853958 C317,14.9261427 316.932786,15 316.810864,15 L315.107073,15 Z" id="Fill-19" fill="#666666"></path>
                        <path d="M372.109495,15 C372.037564,15 372,14.9261427 372,14.7853958 L372,0.242474916 C372,0.0877926421 372.037564,8.8817842e-16 372.109495,8.8817842e-16 L372.776055,8.8817842e-16 C372.838395,8.8817842e-16 372.869565,0.0877926421 372.869565,0.242474916 L372.869565,14.7853958 C372.869565,14.9261427 372.838395,15 372.776055,15 L372.109495,15 Z" id="Fill-21" fill="#666666"></path>
                        <path d="M409.396994,15 C409.305796,15 409.254787,14.9749164 409.23933,14.9261427 L396.654015,1.59280936 L396.125376,1.59280936 L396.125376,14.7853958 C396.125376,14.9261427 396.046544,15 395.890425,15 L394.238042,15 C394.078832,15 394,14.9261427 394,14.7853958 L394,0.242474916 C394,0.0877926421 394.078832,8.8817842e-16 394.238042,8.8817842e-16 L397.889051,8.8817842e-16 C397.94006,8.8817842e-16 398.000343,0.0362318841 398.072993,0.0961538462 L409.840618,12.724359 L409.840618,0.242474916 C409.840618,0.0877926421 409.931816,8.8817842e-16 410.106483,8.8817842e-16 L411.763504,8.8817842e-16 C411.921168,8.8817842e-16 412,0.0877926421 412,0.242474916 L412,14.7853958 C412,14.9261427 411.921168,15 411.763504,15 L409.396994,15 Z" id="Fill-23" fill="#666666"></path>
                        <path d="M162.651822,15 L162.813765,15 L164.779313,15 C164.928554,15 165,14.9261427 165,14.7853958 L165,14.7630992 C165,14.7310479 164.990474,14.6976031 164.971422,14.6655518 L164.971422,14.7115385 L156.443995,0.0473801561 C156.424942,0.0362318841 156.412241,0.022296544 156.39954,0.016722408 C156.396364,0.00836120401 156.359848,0 156.31063,0 L153.692546,0 C153.616337,0 153.562356,0.019509476 153.529015,0.0473801561 L145.053981,14.7115385 L145.053981,14.6655518 C145.015877,14.6976031 145,14.7310479 145,14.7630992 L145,14.7853958 C145,14.9261427 145.080972,15 145.241327,15 L147.133841,15 L147.267206,15 L147.267206,14.9512263 L154.988092,1.73216276 L162.651822,15 Z" id="Fill-26" fill="#FFFFFF"></path>
                        <path d="M350.654439,15 L350.819597,15 L352.788788,15 C352.931714,15 353,14.9261427 353,14.7853958 L353,14.7630992 C353,14.7310479 352.993648,14.6976031 352.974591,14.6655518 L352.974591,14.7115385 L344.445133,0.0473801561 C344.426076,0.0362318841 344.410195,0.022296544 344.403843,0.016722408 C344.395903,0.00836120401 344.364142,0 344.311736,0 L341.689852,0 C341.619978,0 341.562808,0.019509476 341.532635,0.0473801561 L333.052406,14.7115385 L333.052406,14.6655518 C333.015881,14.6976031 333,14.7310479 333,14.7630992 L333,14.7853958 C333,14.9261427 333.080991,15 333.244561,15 L335.13435,15 L335.267747,15 L335.267747,14.9512263 L342.987296,1.73216276 L350.654439,15 Z" id="Fill-28" fill="#666666"></path>
                    </g>
                </g>
            </g>
        </g>
    </g>
</svg>